REM DIRINDEX 1\2,1\4,1\5,1\6,1\7,1\3\8,1\3\9,1\3\10
REM DIRNAME cjc113,folder01,folder02,folder03,folder04,folder05,folder06,folder07,folder08,folder09
TITLE ""
FILE "DB4500_5th_3B_19.mp3" MP3
  TRACK 01 AUDIO
    TITLE "0:"
    INDEX 01 00:00:00
  TRACK 02 AUDIO
    TITLE "8:cjc113_2484"
    INDEX 01 00:00:03
  TRACK 03 AUDIO
    TITLE "0:"
    INDEX 01 00:01:15
  TRACK 04 AUDIO
    TITLE "9:cjc113_2485"
    INDEX 01 00:01:34
  TRACK 05 AUDIO
    TITLE "0:"
    INDEX 01 00:02:63
  TRACK 06 AUDIO
    TITLE "10:cjc113_2486"
    INDEX 01 00:03:06
  TRACK 07 AUDIO
    TITLE "0:"
    INDEX 01 00:06:61
  TRACK 08 AUDIO
    TITLE "8:cjc113_2487"
    INDEX 01 00:07:27
  TRACK 09 AUDIO
    TITLE "0:"
    INDEX 01 00:08:36
  TRACK 10 AUDIO
    TITLE "9:cjc113_2488"
    INDEX 01 00:08:56
  TRACK 11 AUDIO
    TITLE "0:"
    INDEX 01 00:10:06
  TRACK 12 AUDIO
    TITLE "10:cjc113_2489"
    INDEX 01 00:10:25
  TRACK 13 AUDIO
    TITLE "0:"
    INDEX 01 00:14:15
  TRACK 14 AUDIO
    TITLE "8:cjc113_2490"
    INDEX 01 00:14:58
  TRACK 15 AUDIO
    TITLE "0:"
    INDEX 01 00:16:04
  TRACK 16 AUDIO
    TITLE "9:cjc113_2491"
    INDEX 01 00:16:22
  TRACK 17 AUDIO
    TITLE "0:"
    INDEX 01 00:17:51
  TRACK 18 AUDIO
    TITLE "10:cjc113_2492"
    INDEX 01 00:17:69
  TRACK 19 AUDIO
    TITLE "0:"
    INDEX 01 00:21:00
  TRACK 20 AUDIO
    TITLE "8:cjc113_2493"
    INDEX 01 00:21:43
  TRACK 21 AUDIO
    TITLE "0:"
    INDEX 01 00:22:70
  TRACK 22 AUDIO
    TITLE "9:cjc113_2494"
    INDEX 01 00:23:12
  TRACK 23 AUDIO
    TITLE "0:"
    INDEX 01 00:24:43
  TRACK 24 AUDIO
    TITLE "10:cjc113_2495"
    INDEX 01 00:24:59
  TRACK 25 AUDIO
    TITLE "0:"
    INDEX 01 00:29:36
  TRACK 26 AUDIO
    TITLE "8:cjc113_2496"
    INDEX 01 00:30:08
  TRACK 27 AUDIO
    TITLE "0:"
    INDEX 01 00:31:22
  TRACK 28 AUDIO
    TITLE "9:cjc113_2497"
    INDEX 01 00:31:37
  TRACK 29 AUDIO
    TITLE "0:"
    INDEX 01 00:32:33
  TRACK 30 AUDIO
    TITLE "10:cjc113_2498"
    INDEX 01 00:32:48
  TRACK 31 AUDIO
    TITLE "0:"
    INDEX 01 00:35:66
  TRACK 32 AUDIO
    TITLE "8:cjc113_2499"
    INDEX 01 00:36:29
  TRACK 33 AUDIO
    TITLE "0:"
    INDEX 01 00:37:52
  TRACK 34 AUDIO
    TITLE "9:cjc113_2500"
    INDEX 01 00:37:69
  TRACK 35 AUDIO
    TITLE "0:"
    INDEX 01 00:39:27
  TRACK 36 AUDIO
    TITLE "10:cjc113_2501"
    INDEX 01 00:39:43
  TRACK 37 AUDIO
    TITLE "0:"
    INDEX 01 00:42:63
  TRACK 38 AUDIO
    TITLE "8:cjc113_2502"
    INDEX 01 00:43:31
  TRACK 39 AUDIO
    TITLE "0:"
    INDEX 01 00:44:46
  TRACK 40 AUDIO
    TITLE "9:cjc113_2503"
    INDEX 01 00:44:63
  TRACK 41 AUDIO
    TITLE "0:"
    INDEX 01 00:45:55
  TRACK 42 AUDIO
    TITLE "10:cjc113_2504"
    INDEX 01 00:46:00
  TRACK 43 AUDIO
    TITLE "0:"
    INDEX 01 00:49:45
  TRACK 44 AUDIO
    TITLE "8:cjc113_2505"
    INDEX 01 00:50:13
  TRACK 45 AUDIO
    TITLE "0:"
    INDEX 01 00:51:03
  TRACK 46 AUDIO
    TITLE "9:cjc113_2506"
    INDEX 01 00:51:24
  TRACK 47 AUDIO
    TITLE "0:"
    INDEX 01 00:52:30
  TRACK 48 AUDIO
    TITLE "10:cjc113_2507"
    INDEX 01 00:52:49
  TRACK 49 AUDIO
    TITLE "0:"
    INDEX 01 00:55:55
  TRACK 50 AUDIO
    TITLE "8:cjc113_2508"
    INDEX 01 00:56:25
  TRACK 51 AUDIO
    TITLE "0:"
    INDEX 01 00:57:46
  TRACK 52 AUDIO
    TITLE "9:cjc113_2509"
    INDEX 01 00:57:64
  TRACK 53 AUDIO
    TITLE "0:"
    INDEX 01 00:58:66
  TRACK 54 AUDIO
    TITLE "10:cjc113_2510"
    INDEX 01 00:59:08
  TRACK 55 AUDIO
    TITLE "0:"
    INDEX 01 01:02:46
  TRACK 56 AUDIO
    TITLE "8:cjc113_2511"
    INDEX 01 01:03:14
  TRACK 57 AUDIO
    TITLE "0:"
    INDEX 01 01:04:33
  TRACK 58 AUDIO
    TITLE "9:cjc113_2512"
    INDEX 01 01:04:52
  TRACK 59 AUDIO
    TITLE "0:"
    INDEX 01 01:06:22
  TRACK 60 AUDIO
    TITLE "10:cjc113_2513"
    INDEX 01 01:06:42
  TRACK 61 AUDIO
    TITLE "0:"
    INDEX 01 01:09:12
  TRACK 62 AUDIO
    TITLE "8:cjc113_2514"
    INDEX 01 01:09:56
  TRACK 63 AUDIO
    TITLE "0:"
    INDEX 01 01:10:69
  TRACK 64 AUDIO
    TITLE "9:cjc113_2515"
    INDEX 01 01:11:13
  TRACK 65 AUDIO
    TITLE "0:"
    INDEX 01 01:12:30
  TRACK 66 AUDIO
    TITLE "10:cjc113_2516"
    INDEX 01 01:12:50
  TRACK 67 AUDIO
    TITLE "0:"
    INDEX 01 01:16:34
  TRACK 68 AUDIO
    TITLE "8:cjc113_2517"
    INDEX 01 01:17:02
  TRACK 69 AUDIO
    TITLE "0:"
    INDEX 01 01:18:15
  TRACK 70 AUDIO
    TITLE "9:cjc113_2518"
    INDEX 01 01:18:33
  TRACK 71 AUDIO
    TITLE "0:"
    INDEX 01 01:20:00
  TRACK 72 AUDIO
    TITLE "10:cjc113_2519"
    INDEX 01 01:20:14
  TRACK 73 AUDIO
    TITLE "0:"
    INDEX 01 01:23:52
